<svg xmlns="http://www.w3.org/2000/svg" width="256" height="256" preserveAspectRatio="xMidYMid" xmlns:v="https://vecta.io/nano"><defs><linearGradient x1="100%" y1="100%" x2="12.0694444%" y2="0%" id="A"><stop stop-color="#62f755" offset="0%"/><stop stop-color="#8ff986" stop-opacity="0" offset="100%"/></linearGradient><linearGradient x1="100%" y1="100%" x2="40.6027778%" y2="76.8972222%" id="B"><stop stop-opacity=".9" offset="0%"/><stop stop-color="#1a1a1a" stop-opacity="0" offset="100%"/></linearGradient><path id="C" d="M0 44.139C0 19.762 19.762 0 44.139 0h167.723C236.238 0 256 19.762 256 44.139v142.649c0 25.216-31.915 36.16-47.388 16.256l-48.391-62.251v75.484c0 21.938-17.784 39.723-39.723 39.723H44.139C19.762 256 0 236.238 0 211.861V44.139zm44.139-8.825a8.82 8.82 0 0 0-8.825 8.818v167.73c0 4.878 3.947 8.832 8.818 8.832h77.689c2.439 0 3.086-1.977 3.086-4.416v-101.22c0-25.223 31.915-36.167 47.396-16.256l48.391 62.244V44.139c0-4.878.455-8.825-4.416-8.825H44.139z"/></defs><use href="#C" fill="#00e0d9"/><use href="#C" fill="url(#A)"/><use href="#C" fill-opacity=".4" fill="url(#B)"/><path d="M211.861 0C236.238 0 256 19.762 256 44.139v142.649c0 25.216-31.915 36.16-47.388 16.256l-48.391-62.251v75.484c0 21.938-17.784 39.723-39.723 39.723a4.41 4.41 0 0 0 4.409-4.409V115.058c0-25.223 31.915-36.167 47.396-16.256l48.391 62.244V8.825c0-4.871-3.954-8.825-8.832-8.825z" fill="#63f655"/></svg>